<?xml version="1.0" standalone="no"?>
<!DOCTYPE svg PUBLIC "-//W3C//DTD SVG 20010904//EN"
 "http://www.w3.org/TR/2001/REC-SVG-20010904/DTD/svg10.dtd">
<svg version="1.0" xmlns="http://www.w3.org/2000/svg"
 width="640.000000pt" height="640.000000pt" viewBox="0 0 640.000000 640.000000"
 preserveAspectRatio="xMidYMid meet">
<metadata>
Created by potrace 1.11, written by Peter Selinger 2001-2013
</metadata>
<g transform="translate(0.000000,640.000000) scale(0.100000,-0.100000)"
fill="#000000" stroke="none">
<path d="M2989 6386 c-2 -2 -42 -7 -89 -11 -146 -11 -365 -50 -510 -89 -119
-32 -139 -38 -239 -72 -1057 -359 -1863 -1277 -2084 -2374 -50 -246 -62 -370
-62 -640 0 -328 33 -570 115 -863 67 -240 198 -549 308 -731 23 -37 42 -70 42
-71 0 -2 28 -46 62 -97 178 -269 392 -503 669 -731 65 -55 231 -170 337 -234
403 -245 851 -394 1347 -448 113 -12 562 -14 610 -2 11 2 52 8 90 11 89 9 388
69 480 96 406 122 724 280 1040 516 115 85 119 89 225 184 177 157 364 369
475 535 22 33 43 62 46 65 11 9 148 240 154 260 4 11 11 20 16 20 5 0 9 5 9
11 0 7 22 57 49 113 48 100 59 126 58 136 -1 3 6 19 15 35 9 17 25 55 36 85
11 30 23 64 28 75 4 11 8 25 9 30 2 6 15 51 30 100 16 50 36 126 47 170 10 44
20 87 22 95 6 26 19 104 21 125 1 11 6 40 10 65 10 55 13 81 16 143 1 26 4 47
8 47 3 0 5 25 4 55 -2 42 1 54 10 48 9 -5 9 -3 2 8 -12 16 -12 149 -1 167 4 7
4 12 -1 12 -4 0 -9 42 -9 93 -1 50 -4 112 -8 135 -6 35 -5 42 6 36 10 -6 11
-5 1 8 -7 8 -15 44 -18 79 -2 35 -5 64 -5 64 -2 0 -7 24 -14 70 -12 73 -16 95
-30 155 -8 33 -12 60 -9 60 3 0 0 7 -7 15 -7 8 -10 21 -7 29 3 7 0 19 -6 25
-6 6 -7 11 -3 11 5 0 3 6 -3 13 -6 8 -12 27 -14 43 -2 17 -7 35 -11 42 -4 7
-9 20 -11 29 -6 29 -41 134 -65 193 -12 30 -24 64 -26 75 -2 11 -8 21 -14 23
-5 2 -10 10 -10 18 0 8 -18 51 -40 96 -22 46 -40 89 -40 95 0 7 -5 13 -11 13
-5 0 -7 5 -4 10 3 6 2 10 -2 10 -5 0 -16 15 -24 33 -30 62 -64 122 -71 125 -5
2 -8 8 -8 14 0 6 -11 26 -26 45 -14 18 -21 33 -17 33 4 0 3 4 -3 8 -6 4 -35
43 -64 87 -29 44 -56 82 -59 85 -3 3 -19 23 -36 45 -16 22 -32 42 -35 45 -3 3
-16 19 -29 35 -68 89 -205 231 -332 346 -477 428 -1083 709 -1704 789 -49 6
-103 14 -120 16 -36 7 -510 15 -516 10z"/>
</g>
</svg>
