<?xml version="1.0" standalone="no"?>
<!DOCTYPE svg PUBLIC "-//W3C//DTD SVG 20010904//EN"
 "http://www.w3.org/TR/2001/REC-SVG-20010904/DTD/svg10.dtd">
<svg version="1.0" xmlns="http://www.w3.org/2000/svg"
 width="512.000000pt" height="512.000000pt" viewBox="0 0 512.000000 512.000000"
 preserveAspectRatio="xMidYMid meet">
<metadata>
Created by potrace 1.11, written by Peter Selinger 2001-2013
</metadata>
<g transform="translate(0.000000,512.000000) scale(0.100000,-0.100000)"
fill="#000000" stroke="none">
<path d="M2310 5100 c-296 -27 -640 -128 -915 -268 -1269 -650 -1762 -2205
-1099 -3461 429 -812 1256 -1328 2174 -1358 435 -14 823 69 1207 256 165 81
268 144 423 259 131 98 364 326 462 452 504 652 670 1475 454 2260 -305 1109
-1326 1880 -2476 1869 -80 -1 -183 -5 -230 -9z m422 -1694 c160 -34 336 -133
446 -250 313 -335 314 -845 2 -1179 -251 -269 -651 -347 -985 -193 -336 155
-541 518 -495 879 39 312 246 585 531 698 149 59 349 77 501 45z"/>
<path d="M2529 2591 c-20 -16 -22 -23 -14 -47 19 -53 91 -38 83 17 -2 12 -12
28 -24 36 -19 12 -24 11 -45 -6z"/>
</g>
</svg>
